<?xml version="1.0" ?><svg width="135.46667px" height="135.46667px" viewBox="0 0 135.46667 135.46667" id="svg8" version="1.1" xmlns="http://www.w3.org/2000/svg" xmlns:cc="http://creativecommons.org/ns#" xmlns:dc="http://purl.org/dc/elements/1.1/" xmlns:inkscape="http://www.inkscape.org/namespaces/inkscape" xmlns:rdf="http://www.w3.org/1999/02/22-rdf-syntax-ns#" xmlns:sodipodi="http://sodipodi.sourceforge.net/DTD/sodipodi-0.dtd" xmlns:svg="http://www.w3.org/2000/svg"><defs id="defs2"><marker id="marker3773" orient="auto" refX="0.0" refY="0.0" style="overflow:visible"><path d="M -2.5,-1.0 C -2.5,1.7600000 -4.7400000,4.0 -7.5,4.0 C -10.260000,4.0 -12.5,1.7600000 -12.5,-1.0 C -12.5,-3.7600000 -10.260000,-6.0 -7.5,-6.0 C -4.7400000,-6.0 -2.5,-3.7600000 -2.5,-1.0 z " id="path3771" style="fill-rule:evenodd;stroke:#c2c2c2;stroke-width:1pt;stroke-opacity:1;fill:#c2c2c2;fill-opacity:1" transform="scale(0.2) translate(7.4, 1)"/></marker><marker id="marker2116" orient="auto" refX="0.0" refY="0.0" style="overflow:visible"><path d="M -2.5,-1.0 C -2.5,1.7600000 -4.7400000,4.0 -7.5,4.0 C -10.260000,4.0 -12.5,1.7600000 -12.5,-1.0 C -12.5,-3.7600000 -10.260000,-6.0 -7.5,-6.0 C -4.7400000,-6.0 -2.5,-3.7600000 -2.5,-1.0 z " id="path2114" style="fill-rule:evenodd;stroke:#c2c2c2;stroke-width:1pt;stroke-opacity:1;fill:#c2c2c2;fill-opacity:1" transform="scale(0.4) translate(7.4, 1)"/></marker><marker id="TriangleInS" orient="auto" refX="0.0" refY="0.0" style="overflow:visible"><path d="M 5.77,0.0 L -2.88,5.0 L -2.88,-5.0 L 5.77,0.0 z " id="path1725" style="fill-rule:evenodd;stroke:#333333;stroke-width:1pt;stroke-opacity:1;fill:#333333;fill-opacity:1" transform="scale(-0.2)"/></marker><marker id="TriangleInM" orient="auto" refX="0.0" refY="0.0" style="overflow:visible"><path d="M 5.77,0.0 L -2.88,5.0 L -2.88,-5.0 L 5.77,0.0 z " id="path1722" style="fill-rule:evenodd;stroke:#000000;stroke-width:1pt;stroke-opacity:1;fill:#000000;fill-opacity:1" transform="scale(-0.4)"/></marker><marker id="TriangleOutM" orient="auto" refX="0.0" refY="0.0" style="overflow:visible"><path d="M 5.77,0.0 L -2.88,5.0 L -2.88,-5.0 L 5.77,0.0 z " id="path1731" style="fill-rule:evenodd;stroke:#000000;stroke-width:1pt;stroke-opacity:1;fill:#000000;fill-opacity:1" transform="scale(0.4)"/></marker><marker id="TriangleOutS" orient="auto" refX="0.0" refY="0.0" style="overflow:visible"><path d="M 5.77,0.0 L -2.88,5.0 L -2.88,-5.0 L 5.77,0.0 z " id="path1734" style="fill-rule:evenodd;stroke:#333333;stroke-width:1pt;stroke-opacity:1;fill:#333333;fill-opacity:1" transform="scale(0.2)"/></marker><marker id="TriangleInM-0" orient="auto" refX="0" refY="0" style="overflow:visible"><path d="M 5.77,0 -2.88,5 V -5 Z" id="path1722-5" style="fill:#000000;fill-opacity:1;fill-rule:evenodd;stroke:#000000;stroke-width:1pt;stroke-opacity:1" transform="scale(-0.4)"/></marker><marker id="TriangleOutM-4" orient="auto" refX="0" refY="0" style="overflow:visible"><path d="M 5.77,0 -2.88,5 V -5 Z" id="path1731-9" style="fill:#000000;fill-opacity:1;fill-rule:evenodd;stroke:#000000;stroke-width:1pt;stroke-opacity:1" transform="scale(0.4)"/></marker><marker id="TriangleInS-4" orient="auto" refX="0" refY="0" style="overflow:visible"><path d="M 5.77,0 -2.88,5 V -5 Z" id="path1725-6" style="fill:#333333;fill-opacity:1;fill-rule:evenodd;stroke:#333333;stroke-width:1pt;stroke-opacity:1" transform="scale(-0.2)"/></marker><marker id="TriangleOutS-8" orient="auto" refX="0" refY="0" style="overflow:visible"><path d="M 5.77,0 -2.88,5 V -5 Z" id="path1734-5" style="fill:#333333;fill-opacity:1;fill-rule:evenodd;stroke:#333333;stroke-width:1pt;stroke-opacity:1" transform="scale(0.2)"/></marker><marker id="TriangleInS-5" orient="auto" refX="0" refY="0" style="overflow:visible"><path d="M 5.77,0 -2.88,5 V -5 Z" id="path1725-1" style="fill:#757575;fill-opacity:1;fill-rule:evenodd;stroke:#757575;stroke-width:1pt;stroke-opacity:1" transform="scale(-0.2)"/></marker><marker id="TriangleOutS-2" orient="auto" refX="0" refY="0" style="overflow:visible"><path d="M 5.77,0 -2.88,5 V -5 Z" id="path1734-7" style="fill:#757575;fill-opacity:1;fill-rule:evenodd;stroke:#757575;stroke-width:1pt;stroke-opacity:1" transform="scale(0.2)"/></marker></defs><g id="layer1"><path d="M 61.382812 114.30078 A 2.1166666 2.1166666 0 0 0 59.267578 116.41602 A 2.1166666 2.1166666 0 0 0 61.382812 118.5332 L 116.41602 118.5332 A 2.1166666 2.1166666 0 0 0 118.5332 116.41602 A 2.1166666 2.1166666 0 0 0 116.41602 114.30078 L 61.382812 114.30078 z " id="path993" style="color:#000000;font-style:normal;font-variant:normal;font-weight:normal;font-stretch:normal;font-size:medium;line-height:normal;font-family:sans-serif;font-variant-ligatures:normal;font-variant-position:normal;font-variant-caps:normal;font-variant-numeric:normal;font-variant-alternates:normal;font-variant-east-asian:normal;font-feature-settings:normal;font-variation-settings:normal;text-indent:0;text-align:start;text-decoration:none;text-decoration-line:none;text-decoration-style:solid;text-decoration-color:#000000;letter-spacing:normal;word-spacing:normal;text-transform:none;writing-mode:lr-tb;direction:ltr;text-orientation:mixed;dominant-baseline:auto;baseline-shift:baseline;text-anchor:start;white-space:normal;shape-padding:0;shape-margin:0;inline-size:0;clip-rule:nonzero;display:inline;overflow:visible;visibility:visible;isolation:auto;mix-blend-mode:normal;color-interpolation:sRGB;color-interpolation-filters:linearRGB;solid-color:#000000;solid-opacity:1;vector-effect:none;fill:#1565c0;fill-opacity:1;fill-rule:nonzero;stroke:none;stroke-width:4.23333;stroke-linecap:round;stroke-linejoin:miter;stroke-miterlimit:4;stroke-dasharray:none;stroke-dashoffset:0;stroke-opacity:1;color-rendering:auto;image-rendering:auto;shape-rendering:auto;text-rendering:auto;enable-background:accumulate;stop-color:#000000;stop-opacity:1;opacity:1"/><path d="M 93.132812 97.367188 A 2.1166649 2.1166649 0 0 0 91.017578 99.482422 A 2.1166649 2.1166649 0 0 0 93.132812 101.59961 L 116.41602 101.59961 A 2.1166649 2.1166649 0 0 0 118.5332 99.482422 A 2.1166649 2.1166649 0 0 0 116.41602 97.367188 L 93.132812 97.367188 z " id="path1001" style="color:#000000;font-style:normal;font-variant:normal;font-weight:normal;font-stretch:normal;font-size:medium;line-height:normal;font-family:sans-serif;font-variant-ligatures:normal;font-variant-position:normal;font-variant-caps:normal;font-variant-numeric:normal;font-variant-alternates:normal;font-variant-east-asian:normal;font-feature-settings:normal;font-variation-settings:normal;text-indent:0;text-align:start;text-decoration:none;text-decoration-line:none;text-decoration-style:solid;text-decoration-color:#000000;letter-spacing:normal;word-spacing:normal;text-transform:none;writing-mode:lr-tb;direction:ltr;text-orientation:mixed;dominant-baseline:auto;baseline-shift:baseline;text-anchor:start;white-space:normal;shape-padding:0;shape-margin:0;inline-size:0;clip-rule:nonzero;display:inline;overflow:visible;visibility:visible;isolation:auto;mix-blend-mode:normal;color-interpolation:sRGB;color-interpolation-filters:linearRGB;solid-color:#000000;solid-opacity:1;vector-effect:none;fill:#00796b;fill-opacity:1;fill-rule:nonzero;stroke:none;stroke-width:4.23333;stroke-linecap:round;stroke-linejoin:miter;stroke-miterlimit:4;stroke-dasharray:none;stroke-dashoffset:0;stroke-opacity:1;color-rendering:auto;image-rendering:auto;shape-rendering:auto;text-rendering:auto;enable-background:accumulate;stop-color:#000000;stop-opacity:1;opacity:1"/><path d="M 101.59961 88.900391 A 2.1166649 2.1166649 0 0 0 99.482422 91.017578 A 2.1166649 2.1166649 0 0 0 101.59961 93.132812 L 116.41602 93.132812 A 2.1166649 2.1166649 0 0 0 118.5332 91.017578 A 2.1166649 2.1166649 0 0 0 116.41602 88.900391 L 101.59961 88.900391 z " id="path1005" style="color:#000000;font-style:normal;font-variant:normal;font-weight:normal;font-stretch:normal;font-size:medium;line-height:normal;font-family:sans-serif;font-variant-ligatures:normal;font-variant-position:normal;font-variant-caps:normal;font-variant-numeric:normal;font-variant-alternates:normal;font-variant-east-asian:normal;font-feature-settings:normal;font-variation-settings:normal;text-indent:0;text-align:start;text-decoration:none;text-decoration-line:none;text-decoration-style:solid;text-decoration-color:#000000;letter-spacing:normal;word-spacing:normal;text-transform:none;writing-mode:lr-tb;direction:ltr;text-orientation:mixed;dominant-baseline:auto;baseline-shift:baseline;text-anchor:start;white-space:normal;shape-padding:0;shape-margin:0;inline-size:0;clip-rule:nonzero;display:inline;overflow:visible;visibility:visible;isolation:auto;mix-blend-mode:normal;color-interpolation:sRGB;color-interpolation-filters:linearRGB;solid-color:#000000;solid-opacity:1;vector-effect:none;fill:#00796b;fill-opacity:1;fill-rule:nonzero;stroke:none;stroke-width:4.23333;stroke-linecap:round;stroke-linejoin:miter;stroke-miterlimit:4;stroke-dasharray:none;stroke-dashoffset:0;stroke-opacity:1;color-rendering:auto;image-rendering:auto;shape-rendering:auto;text-rendering:auto;enable-background:accumulate;stop-color:#000000;stop-opacity:1;opacity:1"/><path d="M 65.566406 16.933594 A 2.1168782 2.1168782 0 0 0 64.119141 17.552734 L 17.552734 64.119141 A 2.1168782 2.1168782 0 0 0 17.552734 67.113281 L 59.886719 109.44727 A 2.1168782 2.1168782 0 0 0 62.880859 109.44727 L 109.44727 62.880859 A 2.1168782 2.1168782 0 0 0 109.44727 59.886719 L 67.113281 17.552734 A 2.1168782 2.1168782 0 0 0 65.566406 16.933594 z M 65.617188 22.042969 L 104.95703 61.382812 L 61.382812 104.95703 L 22.042969 65.617188 L 65.617188 22.042969 z " id="path994" style="color:#000000;font-style:normal;font-variant:normal;font-weight:normal;font-stretch:normal;font-size:medium;line-height:normal;font-family:sans-serif;font-variant-ligatures:normal;font-variant-position:normal;font-variant-caps:normal;font-variant-numeric:normal;font-variant-alternates:normal;font-variant-east-asian:normal;font-feature-settings:normal;font-variation-settings:normal;text-indent:0;text-align:start;text-decoration:none;text-decoration-line:none;text-decoration-style:solid;text-decoration-color:#000000;letter-spacing:normal;word-spacing:normal;text-transform:none;writing-mode:lr-tb;direction:ltr;text-orientation:mixed;dominant-baseline:auto;baseline-shift:baseline;text-anchor:start;white-space:normal;shape-padding:0;shape-margin:0;inline-size:0;clip-rule:nonzero;display:inline;overflow:visible;visibility:visible;isolation:auto;mix-blend-mode:normal;color-interpolation:sRGB;color-interpolation-filters:linearRGB;solid-color:#000000;solid-opacity:1;vector-effect:none;fill:#616161;fill-opacity:1;fill-rule:nonzero;stroke:none;stroke-width:4.23333;stroke-linecap:round;stroke-linejoin:round;stroke-miterlimit:4;stroke-dasharray:none;stroke-dashoffset:0;stroke-opacity:1;color-rendering:auto;image-rendering:auto;shape-rendering:auto;text-rendering:auto;enable-background:accumulate;stop-color:#000000;stop-opacity:1;opacity:1"/><path d="M 63.5 82.550781 C 60.018064 82.550781 57.15039 85.418455 57.150391 88.900391 C 57.150391 92.382326 60.018064 95.25 63.5 95.25 C 66.981936 95.25 69.849609 92.382326 69.849609 88.900391 C 69.84961 85.418455 66.981936 82.550781 63.5 82.550781 z M 63.5 86.783203 C 64.694074 86.783203 65.617188 87.706316 65.617188 88.900391 C 65.617187 90.094466 64.694074 91.017578 63.5 91.017578 C 62.305926 91.017578 61.382813 90.094466 61.382812 88.900391 C 61.382812 87.706316 62.305926 86.783203 63.5 86.783203 z " id="path981" style="color:#000000;font-style:normal;font-variant:normal;font-weight:normal;font-stretch:normal;font-size:medium;line-height:normal;font-family:sans-serif;font-variant-ligatures:normal;font-variant-position:normal;font-variant-caps:normal;font-variant-numeric:normal;font-variant-alternates:normal;font-variant-east-asian:normal;font-feature-settings:normal;font-variation-settings:normal;text-indent:0;text-align:start;text-decoration:none;text-decoration-line:none;text-decoration-style:solid;text-decoration-color:#000000;letter-spacing:normal;word-spacing:normal;text-transform:none;writing-mode:lr-tb;direction:ltr;text-orientation:mixed;dominant-baseline:auto;baseline-shift:baseline;text-anchor:start;white-space:normal;shape-padding:0;shape-margin:0;inline-size:0;clip-rule:nonzero;display:inline;overflow:visible;visibility:visible;isolation:auto;mix-blend-mode:normal;color-interpolation:sRGB;color-interpolation-filters:linearRGB;solid-color:#000000;solid-opacity:1;vector-effect:none;fill:#616161;fill-opacity:1;fill-rule:nonzero;stroke:none;stroke-width:4.23333;stroke-linecap:round;stroke-linejoin:round;stroke-miterlimit:4;stroke-dasharray:none;stroke-dashoffset:0;stroke-opacity:1;color-rendering:auto;image-rendering:auto;shape-rendering:auto;text-rendering:auto;enable-background:accumulate;stop-color:#000000;stop-opacity:1;opacity:1"/><path d="M 76.199219 69.849609 C 72.717283 69.84961 69.849609 72.717283 69.849609 76.199219 C 69.849609 79.681154 72.717283 82.550781 76.199219 82.550781 C 79.681154 82.550781 82.550781 79.681154 82.550781 76.199219 C 82.550781 72.717283 79.681154 69.84961 76.199219 69.849609 z M 76.199219 74.083984 C 77.393293 74.083984 78.316406 75.005144 78.316406 76.199219 C 78.316406 77.393294 77.393293 78.316406 76.199219 78.316406 C 75.005145 78.316406 74.083984 77.393294 74.083984 76.199219 C 74.083984 75.005144 75.005145 74.083984 76.199219 74.083984 z " id="path985" style="color:#000000;font-style:normal;font-variant:normal;font-weight:normal;font-stretch:normal;font-size:medium;line-height:normal;font-family:sans-serif;font-variant-ligatures:normal;font-variant-position:normal;font-variant-caps:normal;font-variant-numeric:normal;font-variant-alternates:normal;font-variant-east-asian:normal;font-feature-settings:normal;font-variation-settings:normal;text-indent:0;text-align:start;text-decoration:none;text-decoration-line:none;text-decoration-style:solid;text-decoration-color:#000000;letter-spacing:normal;word-spacing:normal;text-transform:none;writing-mode:lr-tb;direction:ltr;text-orientation:mixed;dominant-baseline:auto;baseline-shift:baseline;text-anchor:start;white-space:normal;shape-padding:0;shape-margin:0;inline-size:0;clip-rule:nonzero;display:inline;overflow:visible;visibility:visible;isolation:auto;mix-blend-mode:normal;color-interpolation:sRGB;color-interpolation-filters:linearRGB;solid-color:#000000;solid-opacity:1;vector-effect:none;fill:#616161;fill-opacity:1;fill-rule:nonzero;stroke:none;stroke-width:4.23333;stroke-linecap:round;stroke-linejoin:round;stroke-miterlimit:4;stroke-dasharray:none;stroke-dashoffset:0;stroke-opacity:1;color-rendering:auto;image-rendering:auto;shape-rendering:auto;text-rendering:auto;enable-background:accumulate;stop-color:#000000;stop-opacity:1;opacity:1"/><path d="M 88.900391 57.150391 C 85.418455 57.150391 82.550781 60.018064 82.550781 63.5 C 82.550781 66.981936 85.418455 69.849609 88.900391 69.849609 C 92.382326 69.849609 95.25 66.981936 95.25 63.5 C 95.25 60.018064 92.382326 57.150391 88.900391 57.150391 z M 88.900391 61.382812 C 90.094465 61.382813 91.017578 62.305925 91.017578 63.5 C 91.017578 64.694075 90.094465 65.617187 88.900391 65.617188 C 87.706317 65.617187 86.783203 64.694075 86.783203 63.5 C 86.783203 62.305925 87.706317 61.382813 88.900391 61.382812 z " id="path989" style="color:#000000;font-style:normal;font-variant:normal;font-weight:normal;font-stretch:normal;font-size:medium;line-height:normal;font-family:sans-serif;font-variant-ligatures:normal;font-variant-position:normal;font-variant-caps:normal;font-variant-numeric:normal;font-variant-alternates:normal;font-variant-east-asian:normal;font-feature-settings:normal;font-variation-settings:normal;text-indent:0;text-align:start;text-decoration:none;text-decoration-line:none;text-decoration-style:solid;text-decoration-color:#000000;letter-spacing:normal;word-spacing:normal;text-transform:none;writing-mode:lr-tb;direction:ltr;text-orientation:mixed;dominant-baseline:auto;baseline-shift:baseline;text-anchor:start;white-space:normal;shape-padding:0;shape-margin:0;inline-size:0;clip-rule:nonzero;display:inline;overflow:visible;visibility:visible;isolation:auto;mix-blend-mode:normal;color-interpolation:sRGB;color-interpolation-filters:linearRGB;solid-color:#000000;solid-opacity:1;vector-effect:none;fill:#616161;fill-opacity:1;fill-rule:nonzero;stroke:none;stroke-width:4.23333;stroke-linecap:round;stroke-linejoin:round;stroke-miterlimit:4;stroke-dasharray:none;stroke-dashoffset:0;stroke-opacity:1;color-rendering:auto;image-rendering:auto;shape-rendering:auto;text-rendering:auto;enable-background:accumulate;stop-color:#000000;stop-opacity:1;opacity:1"/></g></svg>